<?xml version="1.0" encoding="UTF-8"?>
<svg width="497px" height="144px" viewBox="0 0 497 144" version="1.1" xmlns="http://www.w3.org/2000/svg" xmlns:xlink="http://www.w3.org/1999/xlink">
    <!-- Generator: Sketch 47.1 (45422) - http://www.bohemiancoding.com/sketch -->
    <title>Group 36 Copy 3</title>
    <desc>Created with Sketch.</desc>
    <defs></defs>
    <g id="Welcome" stroke="none" stroke-width="1" fill="none" fill-rule="evenodd">
        <g id="Group-36-Copy-3" fill="#000000">
            <path d="M126.595609,76 C136.390605,76 145.685857,64.1312336 145.685857,55.4540682 L145.685857,5.18635171 C145.685857,4.48818898 146.885244,3.79002625 150.08361,3.49081365 L154.381414,3.09186352 L154.681261,1.59580052 L126.895456,1.59580052 L127.195303,3.09186352 L131.093311,3.39107612 C135.591014,3.69028871 136.190707,4.08923885 136.190707,4.88713911 L136.190707,54.855643 C136.190707,68.1207349 133.292188,73.8057743 128.39469,73.9055118 C130.793464,69.816273 128.594588,64.3307087 123.69709,64.3307087 C120.298826,64.3307087 118,66.7244094 118,69.7165354 C118,73.3070866 121.598162,76 126.595609,76 Z M201.368522,38.0997375 L183.377712,38.0997375 L179.8795,47.9737533 C175.981491,59.343832 175.981491,61.2388451 183.57761,62.0367454 L186.276232,62.4356955 L186.576079,63.9317585 L164.487363,63.9317585 L164.787209,62.4356955 L166.686239,62.1364829 C172.28338,61.2388451 173.382818,59.9422572 180.479193,40.0944882 L191.573526,8.97637795 L190.773934,5.7847769 C192.972811,4.98687664 196.670922,1.89501312 197.570462,-1.42108547e-14 L198.769849,-1.42108547e-14 L215.961067,52.6614173 C218.359842,60.2414698 219.359331,61.7375328 223.357289,62.0367454 L226.855502,62.4356955 L227.155349,63.9317585 L199.169645,63.9317585 L199.469492,62.4356955 L203.167603,62.0367454 C207.865203,61.7375328 207.965152,59.0446194 205.666326,51.8635171 L201.368522,38.0997375 Z M183.977406,36.1049869 L200.768828,36.1049869 L193.07276,11.0708661 L192.772913,11.0708661 C192.772913,11.0708661 184.077355,36.1049869 183.977406,36.1049869 Z M272.043528,65.4278215 C278.740107,65.4278215 286.736022,63.5328084 290.434133,61.9370079 L294.232193,61.7375328 L297.430559,44.7821522 L295.531529,44.7821522 L292.533061,51.9632546 C287.435665,59.2440945 282.338269,63.4330709 272.84312,63.4330709 C258.150625,63.4330709 247.35614,50.7664042 247.35614,32.1154856 C247.35614,15.7585302 256.451493,2.09448819 272.443324,2.09448819 C278.740107,2.09448819 283.637605,3.59055118 286.636074,5.7847769 L293.932346,21.0446194 L295.731427,21.0446194 L295.531529,1.29658793 L289.034848,3.69028871 C286.03638,2.19422572 279.139903,0.0997375328 272.743171,0.0997375328 C251.653944,0.0997375328 236.861501,13.3648294 236.861501,33.1128609 C236.861501,53.0603675 251.853842,65.4278215 272.043528,65.4278215 Z M315.832269,63.9317585 L343.11833,63.9317585 L342.818483,62.4356955 L338.920475,62.1364829 C334.422772,61.7375328 333.823079,61.4383202 333.823079,60.6404199 L333.823079,38.9973753 L341.818994,31.0183727 L355.711897,53.3595801 C359.609905,59.9422572 359.709854,61.8372703 356.111693,62.1364829 L353.113224,62.4356955 L352.913326,63.9317585 L379,63.9317585 L378.700153,62.4356955 L376.20143,62.2362205 C372.40337,61.8372703 371.703727,61.1391076 367.805719,54.9553806 L348.315675,24.6351706 L353.51302,19.5485564 C367.405923,5.4855643 368.305463,3.88976378 374.902093,3.29133858 L376.701174,3.09186352 L377.001021,1.59580052 L351.913837,1.59580052 L352.013786,3.09186352 L356.011744,3.39107612 C363.607863,4.08923885 363.607863,6.28346457 350.114756,19.9475066 L333.823079,36.3044619 L333.823079,5.18635171 C333.823079,4.48818898 335.022466,3.79002625 338.220832,3.49081365 L342.918432,3.09186352 L343.218279,1.59580052 L315.932218,1.59580052 L316.232065,3.09186352 L319.430431,3.39107612 C324.028083,3.79002625 324.327929,4.08923885 324.327929,4.88713911 L324.327929,60.3412073 C324.327929,61.0393701 323.428389,61.7375328 320.130074,62.0367454 L316.132116,62.4356955 L315.832269,63.9317585 Z" id="JACK’S-Copy"></path>
            <path d="M9.22125889,133.415775 L3.3265476,133.415775 L3.3265476,143.652406 L0,143.652406 L0,118.347594 L8.307751,118.347594 C11.1344688,118.347594 13.3090554,118.996428 14.8315762,120.294118 C16.354097,121.591807 17.1153459,123.48038 17.1153459,125.959893 C17.1153459,127.535659 16.6930682,128.908639 15.8485001,130.078877 C15.003932,131.249115 13.8290232,132.123883 12.3237385,132.703209 L18.2184498,143.44385 L18.2184498,143.652406 L14.6678342,143.652406 L9.22125889,133.415775 Z M3.3265476,130.687166 L8.41116698,130.687166 C10.0543403,130.687166 11.3613904,130.258471 12.3323565,129.40107 C13.3033226,128.543668 13.7887983,127.39662 13.7887983,125.959893 C13.7887983,124.395714 13.3263037,123.196528 12.4013005,122.362299 C11.4762973,121.528071 10.1405208,121.105169 8.39393099,121.093583 L3.3265476,121.093583 L3.3265476,130.687166 Z M47.7034969,131.955882 L36.8275822,131.955882 L36.8275822,140.923797 L49.4615687,140.923797 L49.4615687,143.652406 L33.5182706,143.652406 L33.5182706,118.347594 L49.2892087,118.347594 L49.2892087,121.093583 L36.8275822,121.093583 L36.8275822,129.227273 L47.7034969,129.227273 L47.7034969,131.955882 Z M72.7416566,132.372995 C69.903448,131.550352 67.8380216,130.539444 66.5453153,129.340241 C65.252609,128.141037 64.6062655,126.660882 64.6062655,124.899733 C64.6062655,122.906853 65.3962409,121.258696 66.9762152,119.955214 C68.5561896,118.651731 70.6101255,118 73.1380845,118 C74.8616929,118 76.398554,118.336004 77.7487139,119.008021 C79.0988739,119.680039 80.144514,120.606946 80.8856656,121.78877 C81.6268172,122.970594 81.9973874,124.262471 81.9973874,125.664439 L78.6708398,125.664439 C78.6708398,124.135019 78.1882367,122.932937 77.223016,122.058155 C76.2577953,121.183374 74.8961651,120.745989 73.1380845,120.745989 C71.5064019,120.745989 70.2338234,121.108062 69.320311,121.832219 C68.4067985,122.556376 67.9500491,123.561491 67.9500491,124.847594 C67.9500491,125.878793 68.3838174,126.750665 69.251367,127.463235 C70.1189165,128.175806 71.5954523,128.827537 73.6810184,129.418449 C75.7665846,130.009361 77.3982428,130.661093 78.5760418,131.373663 C79.7538409,132.086234 80.6271228,132.917553 81.1959135,133.867647 C81.7647043,134.817741 82.0490954,135.935822 82.0490954,137.221925 C82.0490954,139.272738 81.2562475,140.915101 79.6705277,142.149064 C78.084808,143.383028 75.9648014,144 73.3104445,144 C71.5868361,144 69.978159,143.666893 68.4843651,143.000668 C66.9905711,142.334444 65.8386434,141.42202 65.0285475,140.263369 C64.2184515,139.104718 63.8134096,137.789669 63.8134096,136.318182 L67.1399572,136.318182 C67.1399572,137.847601 67.7001216,139.055477 68.820467,139.941845 C69.9408125,140.828213 71.4374567,141.27139 73.3104445,141.27139 C75.0570343,141.27139 76.3956835,140.912214 77.326432,140.19385 C78.2571805,139.475487 78.7225478,138.496441 78.7225478,137.256684 C78.7225478,136.016928 78.2916522,135.058158 77.429848,134.380348 C76.5680438,133.702537 75.0053289,133.033426 72.7416566,132.372995 Z M115.395006,121.093583 L107.328559,121.093583 L107.328559,143.652406 L104.036483,143.652406 L104.036483,121.093583 L95.9872724,121.093583 L95.9872724,118.347594 L115.395006,118.347594 L115.395006,121.093583 Z M143.380521,137.048128 L132.866563,137.048128 L130.505231,143.652406 L127.092503,143.652406 L136.675718,118.347594 L139.571366,118.347594 L149.171817,143.652406 L145.776325,143.652406 L143.380521,137.048128 Z M133.866251,134.302139 L142.398069,134.302139 L138.123542,122.466578 L133.866251,134.302139 Z M181.690399,118.347594 L181.690399,135.553476 C181.678909,137.940297 180.934896,139.892595 179.458338,141.410428 C177.98178,142.928261 175.979551,143.779856 173.451592,143.965241 L172.572556,144 C169.826274,144 167.637324,143.252681 166.005641,141.758021 C164.373959,140.263362 163.546639,138.206787 163.523658,135.588235 L163.523658,118.347594 L166.798497,118.347594 L166.798497,135.483957 C166.798497,137.314626 167.298336,138.736849 168.298029,139.750668 C169.297722,140.764488 170.72255,141.27139 172.572556,141.27139 C174.445544,141.27139 175.87899,140.767385 176.872938,139.759358 C177.866885,138.751332 178.363852,137.332006 178.363852,135.501337 L178.363852,118.347594 L181.690399,118.347594 Z M207.883371,133.415775 L201.98866,133.415775 L201.98866,143.652406 L198.662112,143.652406 L198.662112,118.347594 L206.969863,118.347594 C209.796581,118.347594 211.971167,118.996428 213.493688,120.294118 C215.016209,121.591807 215.777458,123.48038 215.777458,125.959893 C215.777458,127.535659 215.35518,128.908639 214.510612,130.078877 C213.666044,131.249115 212.491135,132.123883 210.985851,132.703209 L216.880562,143.44385 L216.880562,143.652406 L213.329946,143.652406 L207.883371,133.415775 Z M201.98866,130.687166 L207.073279,130.687166 C208.716452,130.687166 210.023502,130.258471 210.994469,129.40107 C211.965435,128.543668 212.45091,127.39662 212.45091,125.959893 C212.45091,124.395714 211.988416,123.196528 211.063413,122.362299 C210.138409,121.528071 208.802633,121.105169 207.056043,121.093583 L201.98866,121.093583 L201.98866,130.687166 Z M246.038125,137.048128 L235.524166,137.048128 L233.162835,143.652406 L229.750107,143.652406 L239.333322,118.347594 L242.228969,118.347594 L251.82942,143.652406 L248.433929,143.652406 L246.038125,137.048128 Z M236.523854,134.302139 L245.055673,134.302139 L240.781146,122.466578 L236.523854,134.302139 Z M286.261199,143.652406 L282.934651,143.652406 L270.300665,124.152406 L270.300665,143.652406 L266.974117,143.652406 L266.974117,118.347594 L270.300665,118.347594 L282.969123,137.934492 L282.969123,118.347594 L286.261199,118.347594 L286.261199,143.652406 Z M320.744685,121.093583 L312.678238,121.093583 L312.678238,143.652406 L309.386163,143.652406 L309.386163,121.093583 L301.336952,121.093583 L301.336952,118.347594 L320.744685,118.347594 L320.744685,121.093583 Z M354.877706,136.856952 C354.877706,135.640368 355.213805,134.522287 355.886012,133.502674 C356.55822,132.483061 357.842289,131.295461 359.738258,129.93984 C358.623658,128.572631 357.876772,127.471929 357.497578,126.637701 C357.118384,125.803472 356.92879,124.975049 356.92879,124.152406 C356.92879,122.229046 357.491827,120.722822 358.617918,119.63369 C359.744009,118.544558 361.272252,118 363.202693,118 C364.926302,118 366.35113,118.506902 367.477221,119.520722 C368.603312,120.534542 369.166349,121.811935 369.166349,123.352941 C369.166349,124.372554 368.910684,125.313944 368.399347,126.177139 C367.88801,127.040334 366.994619,127.946965 365.719149,128.897059 L363.874897,130.270053 L369.459361,136.995989 C370.24073,135.489743 370.631409,133.815517 370.631409,131.973262 L373.50982,131.973262 C373.50982,134.927822 372.803151,137.378333 371.389792,139.324866 L374.97488,143.652406 L371.148489,143.652406 L369.476597,141.653743 C368.626283,142.418453 367.629478,143.000666 366.486151,143.400401 C365.342824,143.800136 364.179406,144 362.995862,144 C360.548338,144 358.583453,143.345372 357.10115,142.036096 C355.618847,140.726821 354.877706,139.000456 354.877706,136.856952 Z M362.995862,141.375668 C364.684998,141.375668 366.230477,140.726834 367.632345,139.429144 L361.513566,132.042781 L360.944778,132.459893 C359.025827,133.885034 358.066366,135.350705 358.066366,136.856952 C358.066366,138.22416 358.50588,139.319069 359.38492,140.141711 C360.26396,140.964353 361.467595,141.375668 362.995862,141.375668 Z M360.11745,124.048128 C360.11745,125.160433 360.795392,126.550794 362.151298,128.219251 L364.185145,126.776738 C364.966515,126.220585 365.500825,125.690511 365.788093,125.186497 C366.075361,124.682484 366.218993,124.071305 366.218993,123.352941 C366.218993,122.576645 365.931729,121.930707 365.357193,121.415107 C364.782657,120.899507 364.058752,120.641711 363.185457,120.641711 C362.243218,120.641711 361.496332,120.963232 360.944778,121.606283 C360.393223,122.249335 360.11745,123.063275 360.11745,124.048128 Z M410.262713,143.652406 L410.262713,118.347594 L418.467048,118.347594 C421.190349,118.347594 423.23854,118.915324 424.611681,120.050802 C425.984823,121.18628 426.671383,122.866299 426.671383,125.090909 C426.671383,126.272733 426.338157,127.3184 425.671695,128.227941 C425.005233,129.137482 424.09748,129.841352 422.948408,130.339572 C424.304313,130.721927 425.375807,131.44897 426.162921,132.520722 C426.950036,133.592474 427.343587,134.869868 427.343587,136.352941 C427.343587,138.623897 426.613937,140.408193 425.154615,141.705882 C423.695294,143.003572 421.63274,143.652406 418.966892,143.652406 L410.262713,143.652406 Z M413.572025,131.816845 L413.572025,140.923797 L419.035836,140.923797 C420.575593,140.923797 421.790719,140.521172 422.68125,139.715909 C423.571781,138.910647 424.017039,137.801255 424.017039,136.387701 C424.017039,133.340448 422.373891,131.816845 419.087544,131.816845 L413.572025,131.816845 Z M413.572025,129.140374 L418.570464,129.140374 C420.018295,129.140374 421.175968,128.775405 422.043518,128.045455 C422.911067,127.315504 423.344836,126.324873 423.344836,125.073529 C423.344836,123.683148 422.942666,122.67224 422.138316,122.040775 C421.333965,121.409311 420.110221,121.093583 418.467048,121.093583 L413.572025,121.093583 L413.572025,129.140374 Z M457.862794,137.048128 L447.348835,137.048128 L444.987504,143.652406 L441.574776,143.652406 L451.157991,118.347594 L454.053639,118.347594 L463.654089,143.652406 L460.258598,143.652406 L457.862794,137.048128 Z M448.348523,134.302139 L456.880342,134.302139 L452.605815,122.466578 L448.348523,134.302139 Z M488.002809,133.415775 L482.108098,133.415775 L482.108098,143.652406 L478.78155,143.652406 L478.78155,118.347594 L487.089301,118.347594 C489.916019,118.347594 492.090606,118.996428 493.613126,120.294118 C495.135647,121.591807 495.896896,123.48038 495.896896,125.959893 C495.896896,127.535659 495.474618,128.908639 494.63005,130.078877 C493.785482,131.249115 492.610573,132.123883 491.105289,132.703209 L497,143.44385 L497,143.652406 L493.449384,143.652406 L488.002809,133.415775 Z M482.108098,130.687166 L487.192717,130.687166 C488.835891,130.687166 490.142941,130.258471 491.113907,129.40107 C492.084873,128.543668 492.570349,127.39662 492.570349,125.959893 C492.570349,124.395714 492.107854,123.196528 491.182851,122.362299 C490.257848,121.528071 488.922071,121.105169 487.175481,121.093583 L482.108098,121.093583 L482.108098,130.687166 Z" id="RESTAURANT-&amp;-BAR-Copy"></path>
        </g>
    </g>
</svg>